General
Complete name                    : Eyes.Wide.Shut.1999.mkv
Format                           : Matroska
File size                        : 2.02 GiB
Duration                         : 2h 32mn
Overall bit rate                 : 1 891 Kbps
Writing application              : HandBrake 0.9.4

Video

Format                           : AVC
Bit rate                         : 1 469 Kbps
Width                            : 718 pixels
Height                           : 576 pixels
Display aspect ratio             : 4:3
Original display aspect ratio    : 4:3
Stream size                      : 1.57 GiB (78%)
Writing library                  : x264 core 79


Audio

Format                           : AC-3
Duration                         : 2h 32mn
Bit rate                         : 384 Kbps
Channel(s)                       : 6 channels
Channel positions                : Front: L C R, Side: L R, LFE
Sampling rate                    : 48.0 KHz
Bit depth                        : 16 bits
Stream size                      : 419 MiB (20%)
Language                         : English

Text #1
Language                         : English

Text #2
Language                         : German

Text #3
Language                         : Swedish

Text #4
Language                         : Norwegian

Text #5
Language                         : Danish

Text #6
Language                         : Finnish

Text #7
Language                         : Icelandic

Menu
00:00:00.000                     : Chapter 1
00:02:35.520                     : Chapter 2


